<?xml version="1.0" standalone="no"?>
<!DOCTYPE svg PUBLIC "-//W3C//DTD SVG 1.1//EN" "http://www.w3.org/Graphics/SVG/1.1/DTD/svg11.dtd" >
<!--
2013-9-30: Created.
-->
<svg>
<metadata>
Created by iconfont
</metadata>
<defs>

<font id="iconfont" horiz-adv-x="1024" >
  <font-face
    font-family="iconfont"
    font-weight="500"
    font-stretch="normal"
    units-per-em="1024"
    ascent="896"
    descent="-128"
  />
    <missing-glyph />
    
    <glyph glyph-name="daoru_o" unicode="&#60233;" d="M780.8 413.866667l29.866667-29.866667h-298.666667V682.666667l42.666667-42.666667 98.133333-98.133333L789.333333 682.666667l29.866667-29.866667L682.666667 512l98.133333-98.133333z m-72.533333 12.8L554.666667 580.266667V426.666667h153.6zM469.333333 682.666667v-42.666667H213.333333v-554.666667h554.666667v256h42.666667v-298.666666H170.666667V682.666667h298.666666z"  horiz-adv-x="1024" />

    
    <glyph glyph-name="weixiufuwu_o" unicode="&#60252;" d="M793.6 588.8l29.866667 29.866667c72.533333-98.133333 64-238.933333-25.6-328.533334-76.8-76.8-196.266667-93.866667-290.133334-51.2l-221.866666-221.866666-34.133334 29.866666-59.733333 59.733334-29.866667 29.866666L384 358.4c-46.933333 93.866667-29.866667 213.333333 51.2 290.133333 89.6 89.6 230.4 98.133333 328.533333 25.6l-29.866666-29.866666L644.266667 554.666667l59.733333-59.733334 89.6 93.866667z m21.333333-38.4L733.866667 469.333333l-29.866667-29.866666-119.466667 119.466666 29.866667 29.866667 76.8 76.8c-76.8 34.133333-166.4 17.066667-226.133333-42.666667-85.333333-85.333333-85.333333-217.6 0-302.933333s217.6-85.333333 302.933333 0c59.733333 64 76.8 153.6 46.933333 230.4zM221.866667 140.8l59.733333-59.733333 183.466667 183.466666c-12.8 8.533333-21.333333 17.066667-34.133334 25.6s-21.333333 21.333333-25.6 34.133334l-183.466666-183.466667z"  horiz-adv-x="1024" />

    
    <glyph glyph-name="gouwu_o" unicode="&#60256;" d="M384 682.666667h469.333333v-640H213.333333V682.666667h170.666667z m298.666667-42.666667H384v-42.666667h42.666667v-21.333333c0-59.733333 46.933333-106.666667 106.666666-106.666667S640 516.266667 640 576V597.333333h42.666667V640zM384 640H256v-554.666667h554.666667V640h-128v-64c0-81.066667-68.266667-149.333333-149.333334-149.333333S384 494.933333 384 576V640z"  horiz-adv-x="1024" />

    
    <glyph glyph-name="kefu_o" unicode="&#60259;" d="M554.666667 85.333333v42.666667h85.333333v-42.666667h128v384c-12.8 119.466667-110.933333 213.333333-234.666667 213.333334S311.466667 588.8 298.666667 469.333333v-426.666666H213.333333v298.666666h42.666667v106.666667C256 601.6 379.733333 725.333333 533.333333 725.333333S810.666667 601.6 810.666667 448V341.333333h42.666666v-298.666666h-298.666666v42.666666z"  horiz-adv-x="1024" />

    
    <glyph glyph-name="liwu_o" unicode="&#60261;" d="M512 384V588.8l-8.533333 8.533333H256v-213.333333h256z m42.666667 0h256V597.333333h-247.466667l-8.533333-8.533333V384z m-42.666667-42.666667H256v-213.333333h554.666667v213.333333h-256v-213.333333h-42.666667v213.333333z m55.466667 298.666667H853.333333v-554.666667H213.333333V640h285.866667L401.066667 738.133333l29.866666 29.866667 102.4-102.4L635.733333 768l29.866667-29.866667L567.466667 640z"  horiz-adv-x="1024" />

    
    <glyph glyph-name="hongbao_o" unicode="&#60319;" d="M554.666667 213.333333h85.333333v-42.666666h-85.333333v-42.666667h-42.666667v42.666667h-85.333333v42.666666h85.333333v42.666667h-85.333333v42.666667h89.6l-98.133334 98.133333 29.866667 29.866667 85.333333-85.333334 85.333334 85.333334 29.866666-29.866667-98.133333-98.133333H640v-42.666667h-85.333333v-42.666667z m-8.533334 85.333334zM341.333333 0H298.666667V725.333333h469.333333v-725.333333H341.333333z m0 42.666667h384V682.666667H341.333333v-640zM341.333333 554.666667V597.333333c64-29.866667 128-42.666667 192-42.666666s128 12.8 192 42.666666v-42.666666c-64-29.866667-128-42.666667-192-42.666667s-128 12.8-192 42.666667z"  horiz-adv-x="1024" />

    
    <glyph glyph-name="jinbi_o" unicode="&#60321;" d="M554.666667 298.666667h85.333333v-42.666667h-85.333333v-42.666667h-42.666667v42.666667h-85.333333v42.666667h85.333333v42.666666h-85.333333v42.666667h89.6L418.133333 482.133333l29.866667 29.866667 85.333333-85.333333 85.333334 85.333333 29.866666-29.866667-98.133333-98.133333H640v-42.666667h-85.333333v-42.666666z m-8.533334 85.333333z m-12.8-384C332.8 0 170.666667 162.133333 170.666667 362.666667S332.8 725.333333 533.333333 725.333333 896 563.2 896 362.666667 733.866667 0 533.333333 0z m0 42.666667c174.933333 0 320 145.066667 320 320S708.266667 682.666667 533.333333 682.666667 213.333333 537.6 213.333333 362.666667 358.4 42.666667 533.333333 42.666667z m0 42.666666C379.733333 85.333333 256 209.066667 256 362.666667S379.733333 640 533.333333 640 810.666667 516.266667 810.666667 362.666667 686.933333 85.333333 533.333333 85.333333z m0 42.666667c128 0 234.666667 106.666667 234.666667 234.666667S661.333333 597.333333 533.333333 597.333333 298.666667 490.666667 298.666667 362.666667 405.333333 128 533.333333 128z"  horiz-adv-x="1024" />

    
    <glyph glyph-name="zhangdan_o" unicode="&#60324;" d="M554.666667 256h85.333333v-42.666667h-85.333333v-42.666666h-42.666667v42.666666h-85.333333v42.666667h85.333333v42.666667h-85.333333v42.666666h89.6l-98.133334 98.133334 29.866667 29.866666 85.333333-85.333333 85.333334 85.333333 29.866666-29.866666-98.133333-98.133334H640v-42.666666h-85.333333v-42.666667z m-8.533334 85.333333zM640 640v-42.666667h-213.333333V661.333333c0 8.533333 0 12.8 4.266666 21.333334H298.666667v-640h469.333333V682.666667h-132.266667c4.266667-8.533333 4.266667-12.8 4.266667-21.333334V640z m-42.666667 0v21.333333c0 34.133333-29.866667 64-64 64S469.333333 695.466667 469.333333 661.333333V640h128z m-149.333333 85.333333c21.333333 25.6 51.2 42.666667 85.333333 42.666667s64-17.066667 85.333334-42.666667H810.666667v-725.333333H256V725.333333h192z"  horiz-adv-x="1024" />

    
    <glyph glyph-name="zhibi_renminbi_o" unicode="&#60327;" d="M512 298.666667h85.333333v-42.666667h-85.333333v-42.666667h-42.666667v42.666667H384v42.666667h85.333333v42.666666H384v42.666667h85.333333L362.666667 490.666667l29.866666 29.866666 98.133334-98.133333 98.133333 98.133333 29.866667-29.866666L512 384h85.333333v-42.666667h-85.333333v-42.666666z m341.333333 170.666666v-42.666666c-25.6-8.533333-42.666667-34.133333-42.666666-59.733334s17.066667-51.2 42.666666-59.733333V85.333333H128v217.6c25.6 8.533333 42.666667 34.133333 42.666667 59.733334s-17.066667 51.2-42.666667 59.733333V640h725.333333v-170.666667z m-42.666666-21.333333V597.333333H170.666667v-149.333333c25.6-21.333333 42.666667-51.2 42.666666-85.333333s-17.066667-64-42.666666-85.333334V128h640v149.333333c-25.6 21.333333-42.666667 51.2-42.666667 85.333334s17.066667 64 42.666667 85.333333z"  horiz-adv-x="1024" />

    
    <glyph glyph-name="bingtu_o" unicode="&#60340;" d="M490.666667 682.666667v-42.666667C337.066667 640 213.333333 516.266667 213.333333 362.666667S337.066667 85.333333 490.666667 85.333333s277.333333 123.733333 277.333333 277.333334h42.666667c0-174.933333-145.066667-320-320-320S170.666667 187.733333 170.666667 362.666667 315.733333 682.666667 490.666667 682.666667z m362.666666-298.666667h-341.333333V725.333333c187.733333 0 341.333333-153.6 341.333333-341.333333z m-298.666666 294.4V426.666667h251.733333c-17.066667 132.266667-119.466667 234.666667-251.733333 251.733333z"  horiz-adv-x="1024" />

    
    <glyph glyph-name="gouwuche_o" unicode="&#60350;" d="M298.666667 597.333333h597.333333v-384H298.666667v-85.333333h597.333333v-42.666667H256V610.133333l-85.333333 85.333334 29.866666 29.866666L298.666667 627.2V597.333333z m0-42.666666v-298.666667h554.666666V554.666667H298.666667z m42.666666-554.666667c-25.6 0-42.666667 17.066667-42.666666 42.666667s17.066667 42.666667 42.666666 42.666666 42.666667-17.066667 42.666667-42.666666-17.066667-42.666667-42.666667-42.666667z m469.333334 0c-25.6 0-42.666667 17.066667-42.666667 42.666667s17.066667 42.666667 42.666667 42.666666 42.666667-17.066667 42.666666-42.666666-17.066667-42.666667-42.666666-42.666667z"  horiz-adv-x="1024" />

    
    <glyph glyph-name="kuaidiyuan_o" unicode="&#60353;" d="M725.333333 512c-8.533333-93.866667-93.866667-170.666667-192-170.666667S354.133333 418.133333 341.333333 512V554.666667c8.533333 93.866667 93.866667 170.666667 192 170.666666s179.2-76.8 192-170.666666h85.333334v-42.666667h-85.333334z m-42.666666 0H384c8.533333-72.533333 72.533333-128 149.333333-128s136.533333 55.466667 149.333334 128zM384 554.666667h298.666667c-8.533333 72.533333-72.533333 128-149.333334 128S396.8 627.2 384 554.666667z m384-392.533334L674.133333 256H392.533333L298.666667 162.133333V85.333333h469.333333v76.8z m42.666667 17.066667V42.666667H256v136.533333L375.466667 298.666667h311.466666l123.733334-119.466667z"  horiz-adv-x="1024" />

    
    <glyph glyph-name="yizhan_o" unicode="&#60358;" d="M810.666667 640H213.333333v-213.333333c0-46.933333 38.4-85.333333 85.333334-85.333334s85.333333 38.4 85.333333 85.333334v42.666666h42.666667v-42.666666c0-46.933333 38.4-85.333333 85.333333-85.333334s85.333333 38.4 85.333333 85.333334v42.666666h42.666667v-42.666666c0-46.933333 38.4-85.333333 85.333333-85.333334s85.333333 38.4 85.333334 85.333334V640z m0 42.666667h42.666666v-256c0-38.4-17.066667-72.533333-42.666666-93.866667V42.666667H213.333333v290.133333c-25.6 21.333333-42.666667 55.466667-42.666666 93.866667V682.666667h640z m-42.666667-375.466667c-12.8-4.266667-25.6-8.533333-42.666667-8.533333-42.666667 0-85.333333 21.333333-106.666666 55.466666C597.333333 320 554.666667 298.666667 512 298.666667s-85.333333 21.333333-106.666667 55.466666C384 320 341.333333 298.666667 298.666667 298.666667c-17.066667 0-29.866667 4.266667-42.666667 8.533333V85.333333h512v221.866667z"  horiz-adv-x="1024" />

    
    <glyph glyph-name="key-o" unicode="&#58883;" d="M465.92 345.941L330.07 210.048l77.994-77.995-30.165-30.165-78.038 77.995-60.33-60.331 78.037-77.995-30.165-30.165L179.2 119.552l15.104 15.104 241.237 241.237a213.333 213.333 0 1 0 30.379-29.952z m133.888 336.726a170.667 170.667 0 1 1 0-341.334 170.667 170.667 0 0 1 0 341.334z"  horiz-adv-x="1024" />

    
    <glyph glyph-name="lock-o" unicode="&#58884;" d="M213.333 469.333H768V0H213.333V469.333zM256 426.667v-384h469.333v384H256z m21.333 0h-64v42.666h85.334v64a192 192 0 0 0 384 0v-64H768v-42.666H640V533.333a149.333 149.333 0 1 1-298.667 0v-106.666h-64z m213.334-256a64 64 0 1 0 0 128 64 64 0 0 0 0-128z"  horiz-adv-x="1024" />

    
    <glyph glyph-name="drop-o" unicode="&#58885;" d="M858.539 495.872L874.667 512h-768l42.666-42.667h0.342L460.8 158.208 490.965 128l30.208 30.165 337.75 337.75-0.384-0.043z m-86.614-26.539l-280.917-280.96-281.003 280.96h561.92z"  horiz-adv-x="1024" />

    
    <glyph glyph-name="app-o" unicode="&#58886;" d="M170.667 341.333h298.666v-298.666H170.667V341.333z m42.666-42.666v-213.334h213.334V298.667H213.333z m-42.666 384h298.666V384H170.667V682.667zM213.333 640v-213.333h213.334V640H213.333zM512 682.667h298.667V384H512V682.667zM554.667 640v-213.333H768V640H554.667zM512 341.333h298.667v-298.666H512V341.333z m42.667-42.666v-213.334H768V298.667H554.667z"  horiz-adv-x="1024" />

    
    <glyph glyph-name="setting-o" unicode="&#58887;" d="M249.984 139.52l54.485 16.47 17.366-13.355a274.438 274.438 0 0 1 62.72-36.267l20.224-8.405 13.013-55.296h145.75l13.013 55.296 20.181 8.362a276.992 276.992 0 0 1 62.763 36.267l17.365 13.397 54.485-16.426 72.875 126.208-41.387 38.954 2.816 21.632a280.32 280.32 0 0 1 0 72.619l-2.816 21.632 41.387 38.955-72.875 126.208-54.485-16.427-17.365 13.355a276.992 276.992 0 0 1-62.72 36.266l-20.224 8.406-13.014 55.296H417.792l-13.013-55.296-20.182-8.363a276.992 276.992 0 0 1-62.762-36.267l-17.366-13.397-54.442 16.47-72.96-126.251 41.386-38.955-2.816-21.632a280.32 280.32 0 0 1 0-72.619l2.816-21.632-41.386-38.954 72.874-126.208z m-76.63 181.333a322.987 322.987 0 0 0 0 83.627l-50.047 47.147 106.666 184.746 65.878-19.84a319.659 319.659 0 0 0 72.448 41.899L384 725.333h213.333l15.744-66.901c26.027-10.795 50.347-24.96 72.448-41.899l65.878 19.84 106.666-184.746-50.09-47.147a322.987 322.987 0 0 0 0-83.627l50.09-47.146L751.403 88.96l-65.878 19.84a319.659 319.659 0 0 0-72.448-41.899L597.333 0H384l-15.744 66.901a319.659 319.659 0 0 0-72.448 41.899l-65.877-19.84-106.667 184.747 50.09 47.146zM490.668 256a106.667 106.667 0 1 1 0 213.333 106.667 106.667 0 0 1 0-213.333z m0-42.667a149.333 149.333 0 1 0 0 298.667 149.333 149.333 0 0 0 0-298.667z"  horiz-adv-x="1024" />

    
    <glyph glyph-name="unlock-o" unicode="&#58888;" d="M213.333 469.333H768V0H213.333V469.333zM256 426.667v-384h469.333v384H256zM682.667 512H640v21.333a149.333 149.333 0 1 1-298.667 0v-106.666h-128v42.666h85.334v64a192 192 0 0 0 384 0V512zM640 512v-42.667zM490.667 170.667a64 64 0 1 0 0 128 64 64 0 0 0 0-128z"  horiz-adv-x="1024" />

    
    <glyph glyph-name="user-o" unicode="&#58889;" d="M725.333 117.888l-95.445 95.445H351.701L256 117.632v-74.965h469.333v75.221zM768 135.083V0H213.333V135.253h0.086l-0.086 0.086L333.995 256l0.085-0.085V256h313.173v-0.299l0.299 0.299 120.704-120.661-0.256-0.256z m-85.333 355.584a192 192 0 1 0-384 0 192 192 0 0 0 384 0z m-42.667 0a149.333 149.333 0 1 1-298.667 0 149.333 149.333 0 0 1 298.667 0z"  horiz-adv-x="1024" />

    
    <glyph glyph-name="group-o" unicode="&#58890;" d="M682.667 117.888l-95.446 95.445H309.035l-95.702-95.701v-74.965h469.334v75.221z m42.666 17.195V0H170.667V135.253h0.085l-0.085 0.086L291.328 256l0.085-0.085V256h313.174v-0.299l0.298 0.299L725.59 135.339l-0.256-0.256z m42.539-92.416h42.581V117.93l-95.445 95.402h-18.133L661.333 256H540.331h192.042v-0.299l0.299 0.299 120.704-120.704-0.256-0.213V0H533.205h234.582l0.085 42.667zM533.248 304.853a149.29 149.29 0 0 1 64 38.614A106.667 106.667 0 0 1 682.496 448v85.333a106.667 106.667 0 0 1-85.205 104.534 149.29 149.29 0 0 1-64.043 38.613 149.29 149.29 0 0 0 191.915-143.104V448a149.29 149.29 0 0 0-191.915-143.104zM448 682.667a149.333 149.333 0 0 0 149.333-149.334V448a149.333 149.333 0 1 0-298.666 0v85.333A149.333 149.333 0 0 0 448 682.667zM448 640a106.667 106.667 0 0 1-106.667-106.667V448a106.667 106.667 0 1 1 213.334 0v85.333A106.667 106.667 0 0 1 448 640z"  horiz-adv-x="1024" />

    
    <glyph glyph-name="view-list-o" unicode="&#58891;" d="M170.667 597.333h682.666v-42.666H170.667v42.666z m0-426.666h682.666V128H170.667v42.667z m0 213.333h682.666v-42.667H170.667V384z"  horiz-adv-x="1024" />

    


  </font>
</defs>
</svg>
